<?xml version="1.0" standalone="no"?>
<!DOCTYPE svg PUBLIC "-//W3C//DTD SVG 20010904//EN"
 "http://www.w3.org/TR/2001/REC-SVG-20010904/DTD/svg10.dtd">
<svg version="1.0" xmlns="http://www.w3.org/2000/svg"
 width="225.000000pt" height="225.000000pt" viewBox="0 0 225.000000 225.000000"
 preserveAspectRatio="xMidYMid meet">

<g transform="translate(0.000000,225.000000) scale(0.100000,-0.100000)"
fill="#000000" stroke="none">
<path d="M0 1125 l0 -1125 1125 0 1125 0 0 1125 0 1125 -1125 0 -1125 0 0
-1125z m1588 684 c152 -74 126 -295 -41 -349 -77 -24 -171 21 -211 102 -31 61
-32 98 -7 153 47 103 157 143 259 94z m-392 -154 c19 -82 34 -156 34 -162 0
-9 -23 -13 -81 -13 -76 0 -82 -2 -110 -29 -23 -23 -29 -39 -29 -70 0 -69 16
-77 166 -83 173 -8 225 -27 315 -117 84 -84 109 -145 109 -265 0 -133 -43
-232 -145 -331 -85 -83 -206 -135 -315 -135 l-46 0 -34 153 c-18 83 -35 158
-38 165 -3 9 17 12 78 12 80 0 83 1 116 34 40 40 45 80 14 118 -18 24 -26 26
-147 30 -98 4 -141 10 -184 27 -184 70 -286 267 -235 456 54 205 260 370 450
362 l49 -2 33 -150z m-349 -890 c46 -28 93 -107 93 -160 0 -44 -39 -114 -82
-149 -79 -62 -209 -40 -265 45 -69 105 -20 243 102 287 41 15 102 6 152 -23z
m1095 -433 c63 -37 98 -63 98 -74 0 -11 -17 -26 -41 -38 -22 -12 -70 -39 -106
-61 -36 -22 -72 -38 -79 -35 -11 4 -14 34 -14 134 0 71 3 132 7 136 10 9 25 2
135 -62z"/>
</g>
</svg>
